# xmcd
#
# Track frame offsets:
#	150
#	18982
#	36888
#	55191
#
# Disc length: 990 seconds
#
# Revision: 0
# Processed by: cddbd v1.5.1PL2 Copyright (c) Steve Scherf et al.
# Submitted via: audiograbber 1.82.02
#
DISCID=2903dc04
DTITLE=Erase-E - Those That Know Me
DYEAR=1998
DGENRE=Rap
TTITLE0=Erase-E, Dap - Those That Know Me
TTITLE1=Erase-E, Dap - Those That Know Me (Radio)
TTITLE2=Erase-E, Ipcus - Let's Celebrate
TTITLE3=Erase-E, Slick, Brotha Dre - Head'N Shouldas
EXTD=Cashflow420.com
EXTT0=
EXTT1=
EXTT2=
EXTT3=
PLAYORDER=
